<?xml version="1.0" encoding="utf-8"?>
<!-- Generator: Adobe Illustrator 19.0.0, SVG Export Plug-In . SVG Version: 6.00 Build 0)  -->
<svg version="1.1" id="Layer_1" xmlns="http://www.w3.org/2000/svg" xmlns:xlink="http://www.w3.org/1999/xlink" x="0px" y="0px"
	 viewBox="0 0 1024 165" style="enable-background:new 0 0 1024 165;" xml:space="preserve">
<style type="text/css">
	.st0{fill:#0071BC;}
</style>
<g id="XMLID_2_">
	<path id="XMLID_4_" d="M72.5,101.7c4.6,0,8.9-1.1,12.8-3.2c3.9-2.2,7.5-5.4,10.8-9.6l16.7,15.8c-4.5,5.9-10.5,10.7-18,14.3
		c-7.5,3.6-15.2,5.5-23.2,5.5c-7.7,0-14.9-1.4-21.6-4.1c-6.7-2.8-12.5-6.5-17.3-11.2c-4.8-4.7-8.6-10.3-11.4-16.8
		c-2.8-6.5-4.2-13.5-4.2-21c0-7.5,1.4-14.5,4.2-21C24.1,43.7,28,38,32.8,33.3c4.9-4.7,10.6-8.5,17.3-11.2c6.6-2.8,13.8-4.1,21.5-4.1
		c8.3,0,16.2,1.8,23.8,5.5C103,27,109,31.9,113.6,38L96.4,54.3c-3.3-4.5-7.1-8-11.3-10.3c-4.2-2.3-8.7-3.5-13.5-3.5
		c-4,0-7.8,0.8-11.2,2.4c-3.4,1.6-6.4,3.7-8.9,6.4c-2.5,2.7-4.5,6-5.9,9.7c-1.4,3.8-2.1,7.9-2.1,12.2c0,4.3,0.7,8.4,2.2,12.1
		c1.5,3.7,3.5,7,6.1,9.7c2.6,2.7,5.7,4.8,9.2,6.4C64.5,100.9,68.4,101.7,72.5,101.7z"/>
	<path id="XMLID_13_" d="M228,71.2c0,7.4-1.4,14.4-4.1,20.9c-2.8,6.5-6.5,12.2-11.3,17c-4.8,4.8-10.4,8.5-16.9,11.3
		c-6.5,2.8-13.5,4.1-21,4.1c-7.5,0-14.5-1.4-21-4.1c-6.6-2.8-12.2-6.5-17-11.3c-4.8-4.8-8.5-10.4-11.3-17
		c-2.8-6.5-4.1-13.5-4.1-20.9s1.4-14.4,4.1-20.9c2.8-6.5,6.5-12.2,11.3-17c4.8-4.8,10.4-8.5,17-11.3c6.5-2.8,13.6-4.1,21-4.1
		c7.5,0,14.5,1.4,21,4.1c6.5,2.8,12.1,6.5,16.9,11.3c4.8,4.8,8.5,10.4,11.3,17C226.7,56.9,228,63.9,228,71.2z M201.7,71.2
		c0-4.3-0.7-8.4-2.1-12.2c-1.4-3.8-3.3-7-5.7-9.7c-2.4-2.7-5.3-4.8-8.6-6.4c-3.3-1.6-6.9-2.4-10.8-2.4c-3.8,0-7.4,0.8-10.8,2.4
		c-3.3,1.6-6.2,3.7-8.6,6.4c-2.4,2.7-4.3,6-5.7,9.7c-1.4,3.8-2.1,7.9-2.1,12.2c0,4.3,0.7,8.4,2.1,12.2c1.4,3.8,3.3,7,5.7,9.7
		c2.4,2.7,5.3,4.9,8.6,6.4c3.3,1.6,6.9,2.4,10.8,2.4c3.8,0,7.4-0.8,10.8-2.4c3.3-1.6,6.2-3.7,8.6-6.4c2.4-2.7,4.3-6,5.7-9.7
		C201.1,79.6,201.7,75.6,201.7,71.2z"/>
	<path id="XMLID_16_" d="M246.2,122.9V19.6h50.2c5.3,0,10.2,0.8,14.7,2.4c4.5,1.6,8.3,3.9,11.5,6.8c3.2,2.9,5.7,6.4,7.5,10.4
		c1.8,4,2.7,8.5,2.7,13.3c0,6.5-1.7,12.3-5.2,17.4c-3.5,5.1-8.1,9-14,11.5l21.7,41.5h-28.4l-18.8-38h-16.7v38H246.2z M294.1,40.5
		h-22.5V65h22.5c3.9,0,7.1-1.1,9.5-3.4c2.4-2.3,3.6-5.2,3.6-8.9c0-3.6-1.2-6.6-3.6-8.9C301.2,41.7,298,40.5,294.1,40.5z"/>
	<path id="XMLID_19_" d="M350,122.9V19.6h78.1v21.3h-52.7v19.6h37.2v20.7h-37.2v20.5h53.3v21.3H350z"/>
	<path id="XMLID_21_" class="st0" d="M514.7,14.7c2.3,0,4,0.1,5.1,0.2c1.1,0.1,2.4,0.6,3.8,1.4c1.4,0.8,2.4,2.1,3,4
		c0.6,1.9,0.9,4.4,0.9,7.5c0,3.2-0.3,5.7-0.9,7.5c-0.6,1.9-1.6,3.2-3.1,3.9c-1.5,0.7-2.8,1.2-3.9,1.3c-1.1,0.1-2.9,0.2-5.2,0.2
		h-45.2v14.9h29.1c2.4,0,4.1,0.1,5.2,0.2c1.1,0.1,2.4,0.6,3.9,1.4c2.6,1.5,3.8,5.4,3.8,11.7c0,6.9-1.9,11-5.6,12.3
		c-1.6,0.5-4.1,0.7-7.5,0.7h-28.9v27.9c0,2.4-0.1,4.1-0.2,5.2c-0.1,1.1-0.6,2.4-1.4,3.8c-1.4,2.7-5.2,4-11.5,4
		c-6.9,0-10.9-1.9-12.1-5.6c-0.6-1.6-0.9-4.1-0.9-7.5V27.7c0-5,0.9-8.4,2.8-10.3c1.9-1.8,5.4-2.7,10.6-2.7H514.7z"/>
	<path id="XMLID_23_" class="st0" d="M563.3,101.1h40.2c3.2,0,5.6,0.4,7.1,1.1c1.5,0.7,2.5,1.9,3,3.5c0.5,1.6,0.7,3.7,0.7,6.3
		c0,2.6-0.2,4.7-0.7,6.3c-0.5,1.6-1.3,2.7-2.5,3.2c-1.9,1-4.4,1.5-7.7,1.5h-53.2c-6.9,0-10.9-1.9-12.1-5.6c-0.6-1.6-0.9-4.1-0.9-7.5
		V27.7c0-2.3,0.1-4,0.2-5.1c0.1-1.1,0.6-2.4,1.4-3.9c1.4-2.7,5.2-4,11.5-4c6.9,0,11,1.8,12.3,5.5c0.5,1.7,0.7,4.2,0.7,7.7V101.1z"/>
	<path id="XMLID_25_" class="st0" d="M674.7,13.3c14.6,0,27.2,5.3,38,15.8c10.7,10.5,16.1,23.6,16.1,39.2s-5.1,28.9-15.4,39.9
		c-10.2,11-22.8,16.5-37.8,16.5c-15,0-27.7-5.4-38.2-16.2c-10.5-10.8-15.7-23.7-15.7-38.7c0-8.2,1.5-15.8,4.4-23
		c3-7.1,6.9-13.1,11.8-17.9c4.9-4.8,10.6-8.6,17-11.4C661.3,14.7,667.9,13.3,674.7,13.3z M647.8,69c0,8.8,2.8,15.9,8.5,21.3
		c5.7,5.5,12,8.2,19,8.2s13.3-2.7,18.9-8c5.6-5.3,8.4-12.5,8.4-21.4c0-9-2.8-16.1-8.5-21.6c-5.7-5.4-12-8.1-19-8.1
		c-7,0-13.3,2.7-18.9,8.2S647.8,60.3,647.8,69z"/>
	<path id="XMLID_28_" class="st0" d="M867.9,15.3c6.6,2.4,9.9,5.5,9.9,9.5c0,1.3-0.6,3.7-1.8,7.2l-28.4,82c-0.2,0.7-0.5,1.5-1,2.5
		c-0.5,1-1.8,2.3-3.9,3.9c-2.1,1.6-4.6,2.4-7.5,2.4c-2.9,0-5.4-0.8-7.5-2.4c-2.1-1.6-3.5-3.2-4.2-4.8l-17.3-51
		c-10.9,32.3-16.5,48.7-16.7,49.3c-0.2,0.6-0.6,1.4-1.3,2.5c-0.7,1.1-1.5,2.1-2.4,3c-2.3,2.3-5,3.4-8.1,3.4c-3.2,0-5.7-0.7-7.8-2.2
		c-2-1.5-3.4-3-4.1-4.4l-1-2.2l-28.5-82c-1.1-3.2-1.6-5.7-1.6-7.2c0-3.9,3.3-7,9.9-9.3c2.9-1,5.4-1.5,7.8-1.5c2.3,0,4.1,0.8,5.3,2.4
		c1.2,1.6,2.3,4,3.3,7.2l16.2,49.3l16.1-48.6c1.4-4.1,3.9-7,7.5-8.6c1.6-0.7,3.6-1,6.1-1c2.5,0,4.8,0.8,7,2.4
		c2.2,1.6,3.5,3.2,4.1,4.8l17,51.3l16.2-49.6c0.8-2.3,1.4-3.9,1.9-5c0.5-1.1,1.4-2.1,2.7-3.2c1.3-1,3-1.6,4.9-1.6
		S865.2,14.3,867.9,15.3z"/>
	<path id="XMLID_30_" d="M896.3,108c2.1,0,3.9,0.8,5.4,2.4c1.5,1.6,2.3,3.4,2.3,5.6c0,2.3-0.8,4.2-2.3,5.8c-1.5,1.6-3.3,2.4-5.4,2.4
		c-2.2,0-4-0.8-5.5-2.4c-1.5-1.6-2.3-3.5-2.3-5.8c0-2.2,0.8-4,2.3-5.6C892.2,108.8,894.1,108,896.3,108z"/>
	<path id="XMLID_32_" d="M916.2,154.4c-1.2,0-2.3-0.1-3.5-0.3c-1.1-0.2-2.2-0.4-3.2-0.6v-9.3c0.9,0.2,1.7,0.3,2.6,0.4
		c0.8,0.1,1.7,0.1,2.7,0.1c3.1,0,5.3-0.7,6.6-2.2c1.4-1.5,2.1-3.9,2.1-7.2V50.9h10.8v85.1c0,5.8-1.5,10.3-4.7,13.6
		C926.6,152.8,922.1,154.4,916.2,154.4z M929,33.1c-2.2,0-4-0.7-5.5-2.2c-1.5-1.5-2.3-3.3-2.3-5.6c0-2.1,0.8-3.9,2.3-5.4
		c1.5-1.5,3.4-2.3,5.5-2.3c2.1,0,3.9,0.8,5.4,2.3c1.5,1.5,2.3,3.3,2.3,5.4c0,2.3-0.7,4.1-2.2,5.6C933,32.4,931.2,33.1,929,33.1z"/>
	<path id="XMLID_35_" d="M949.6,113.6l5.8-7.1c4.2,3.2,8.2,5.4,11.9,6.9c3.7,1.4,7.5,2.1,11.3,2.1c5.2,0,9.5-1.2,13-3.7
		c3.4-2.5,5.2-5.6,5.2-9.3c0-3-1-5.3-3.1-6.9c-2.1-1.7-5.4-3-9.9-3.8l-11.8-2.1c-7-1.3-12.1-3.4-15.4-6.5c-3.3-3.1-4.9-7.2-4.9-12.4
		c0-6.2,2.4-11.3,7.3-15.2c4.9-3.9,11.1-5.9,18.7-5.9c4.9,0,9.6,0.7,14,2.2c4.4,1.5,8.9,3.7,13.4,6.8l-5.3,7.5
		c-3.7-2.7-7.5-4.6-11.2-5.8c-3.7-1.2-7.5-1.8-11.4-1.8c-4.7,0-8.5,1-11.4,3.1c-2.9,2.1-4.3,4.9-4.3,8.4c0,3,0.9,5.2,2.7,6.8
		c1.8,1.6,5,2.8,9.7,3.5l12.1,2.2c7.2,1.3,12.5,3.5,15.9,6.6c3.4,3.2,5.1,7.4,5.1,12.7c0,6.2-2.7,11.5-8,15.8
		c-5.4,4.3-12,6.5-20,6.5c-5.9,0-11.4-0.9-16.4-2.7C957.4,119.7,953.1,117.1,949.6,113.6z"/>
</g>
</svg>
